<svg width="207" height="206" xmlns="http://www.w3.org/2000/svg" xmlns:xlink="http://www.w3.org/1999/xlink" xml:space="preserve" overflow="hidden"><g transform="translate(-2483 -2008)"><path d="M2485.5 2044C2485.5 2025.5 2500.5 2010.5 2519 2010.5L2654 2010.5C2672.5 2010.5 2687.5 2025.5 2687.5 2044L2687.5 2178C2687.5 2196.5 2672.5 2211.5 2654 2211.5L2519 2211.5C2500.5 2211.5 2485.5 2196.5 2485.5 2178Z" stroke="#FF0000" stroke-width="4.58333" stroke-miterlimit="8" fill="#FF0000" fill-rule="evenodd"/><g><g><g><path d="M2586.5 2121.88C2580.24 2121.88 2575.12 2116.76 2575.12 2110.5 2575.12 2104.24 2580.24 2099.12 2586.5 2099.12 2592.76 2099.12 2597.88 2104.24 2597.88 2110.5 2597.88 2116.76 2592.76 2121.88 2586.5 2121.88ZM2612.09 2103.39C2611.53 2101.31 2610.67 2099.31 2609.63 2097.51L2612 2090.4 2606.6 2085 2599.49 2087.37C2597.59 2086.33 2595.6 2085.48 2593.51 2084.91L2590.29 2078.27 2582.71 2078.27 2579.39 2084.91C2577.31 2085.48 2575.31 2086.33 2573.51 2087.37L2566.4 2085 2561 2090.4 2563.37 2097.51C2562.33 2099.41 2561.48 2101.4 2560.91 2103.49L2554.27 2106.71 2554.27 2114.29 2560.91 2117.61C2561.48 2119.69 2562.33 2121.69 2563.37 2123.49L2561 2130.6 2566.4 2136 2573.51 2133.63C2575.41 2134.67 2577.4 2135.53 2579.49 2136.09L2582.8 2142.73 2590.39 2142.73 2593.7 2136.09C2595.79 2135.53 2597.78 2134.67 2599.58 2133.63L2606.69 2136 2612.09 2130.6 2609.72 2123.49C2610.77 2121.59 2611.62 2119.6 2612.19 2117.51L2618.82 2114.2 2618.82 2106.61 2612.09 2103.39Z" stroke="#FFFFFF" stroke-width="0.740421" fill="#FFFFFF"/></g></g></g></g></svg>