<svg width="96" height="96" xmlns="http://www.w3.org/2000/svg" xmlns:xlink="http://www.w3.org/1999/xlink" xml:space="preserve" overflow="hidden"><g transform="translate(-621 -553)"><path d="M669 613C662.4 613 657 607.6 657 601 657 594.4 662.4 589 669 589 675.6 589 681 594.4 681 601 681 607.6 675.6 613 669 613ZM696 593.5C695.4 591.3 694.5 589.2 693.4 587.3L695.9 579.8 690.2 574.1 682.7 576.6C680.7 575.5 678.6 574.6 676.4 574L673 567 665 567 661.5 574C659.3 574.6 657.2 575.5 655.3 576.6L647.8 574.1 642.1 579.8 644.6 587.3C643.5 589.3 642.6 591.4 642 593.6L635 597 635 605 642 608.5C642.6 610.7 643.5 612.8 644.6 614.7L642.1 622.2 647.8 627.9 655.3 625.4C657.3 626.5 659.4 627.4 661.6 628L665.1 635 673.1 635 676.6 628C678.8 627.4 680.9 626.5 682.8 625.4L690.3 627.9 696 622.2 693.5 614.7C694.6 612.7 695.5 610.6 696.1 608.4L703.1 604.9 703.1 596.9 696 593.5Z" stroke="#FF0000" stroke-width="0.781207" fill="#FF0000"/></g></svg>