<svg width="96" height="96" xmlns="http://www.w3.org/2000/svg" xmlns:xlink="http://www.w3.org/1999/xlink" xml:space="preserve" overflow="hidden"><g transform="translate(-726 -298)"><path d="M787 332 807 332 807 312 805 312 805 327.688C805 327.693 804.996 327.697 804.991 327.697 804.986 327.697 804.982 327.693 804.982 327.688 794.867 310.571 772.791 304.895 755.674 315.009 738.557 325.124 732.881 347.2 742.996 364.317 753.111 381.434 775.187 387.111 792.303 376.996 794.601 375.638 796.74 374.029 798.682 372.199L797.309 370.744C783.645 383.631 762.122 383.001 749.235 369.338 736.348 355.674 736.978 334.151 750.641 321.264 764.305 308.377 785.828 309.006 798.715 322.67 800.784 324.863 802.552 327.322 803.972 329.981 803.975 329.986 803.973 329.992 803.968 329.995 803.967 329.996 803.965 329.996 803.963 329.996L787 329.996Z" stroke="#7030A0" stroke-width="2.66667" fill="#7030A0"/></g></svg>