<svg width="96" height="96" xmlns="http://www.w3.org/2000/svg" xmlns:xlink="http://www.w3.org/1999/xlink" xml:space="preserve" overflow="hidden"><g transform="translate(-21 -81)"><path d="M69 141C62.4 141 57 135.6 57 129 57 122.4 62.4 117 69 117 75.6 117 81 122.4 81 129 81 135.6 75.6 141 69 141ZM96 121.5C95.4 119.3 94.5 117.2 93.4 115.3L95.9 107.8 90.2 102.1 82.7 104.6C80.7 103.5 78.6 102.6 76.4 102L73 95 65 95 61.5 102C59.3 102.6 57.2 103.5 55.3 104.6L47.8 102.1 42.1 107.8 44.6 115.3C43.5 117.3 42.6 119.4 42 121.6L35 125 35 133 42 136.5C42.6 138.7 43.5 140.8 44.6 142.7L42.1 150.2 47.8 155.9 55.3 153.4C57.3 154.5 59.4 155.4 61.6 156L65.1 163 73.1 163 76.6 156C78.8 155.4 80.9 154.5 82.8 153.4L90.3 155.9 96 150.2 93.5 142.7C94.6 140.7 95.5 138.6 96.1 136.4L103.1 132.9 103.1 124.9 96 121.5Z" stroke="#FFFFFF" fill="#FFFFFF"/></g></svg>