<svg width="96" height="96" xmlns="http://www.w3.org/2000/svg" xmlns:xlink="http://www.w3.org/1999/xlink" xml:space="preserve" overflow="hidden"><g transform="translate(-1083 -300)"><path d="M1113.5 338 1171.1 327.8 1168.3 312 1089.6 326 1092.2 340.7 1092.4 380C1092.4 382.2 1094.2 384 1096.4 384L1168.4 384C1170.6 384 1172.4 382.2 1172.4 380L1172.4 338 1113.5 338ZM1158.4 317.8 1165.1 316.6 1165.3 317.8 1159.8 325.6 1152 327.1 1158.4 317.8ZM1142.2 320.7 1150.1 319.3 1143.6 328.6 1135.7 330 1142.2 320.7ZM1125.9 323.6 1133.8 322.2 1127.3 331.5 1119.4 332.9 1125.9 323.6ZM1109.7 326.5 1117.6 325.1 1111.1 334.4 1103.2 335.8 1109.7 326.5ZM1101.3 328 1095.5 336.3 1094.2 329.2 1101.3 328ZM1156.4 363 1108.4 363 1108.4 351 1156.4 351 1156.4 363Z" stroke="#000000" fill="#333333"/></g></svg>