<svg width="96" height="96" xmlns="http://www.w3.org/2000/svg" xmlns:xlink="http://www.w3.org/1999/xlink" xml:space="preserve" overflow="hidden"><g transform="translate(-1091 -300)"><path d="M1121.5 338 1179.1 327.8 1176.3 312 1097.6 326 1100.2 340.7 1100.4 380C1100.4 382.2 1102.2 384 1104.4 384L1176.4 384C1178.6 384 1180.4 382.2 1180.4 380L1180.4 338 1121.5 338ZM1166.4 317.8 1173.1 316.6 1173.3 317.8 1167.8 325.6 1160 327.1 1166.4 317.8ZM1150.2 320.7 1158.1 319.3 1151.6 328.6 1143.7 330 1150.2 320.7ZM1133.9 323.6 1141.8 322.2 1135.3 331.5 1127.4 332.9 1133.9 323.6ZM1117.7 326.5 1125.6 325.1 1119.1 334.4 1111.2 335.8 1117.7 326.5ZM1109.3 328 1103.5 336.3 1102.2 329.2 1109.3 328ZM1164.4 363 1116.4 363 1116.4 351 1164.4 351 1164.4 363Z" stroke="#FF8C00" fill="#FF8C00"/></g></svg>